# xmcd
#
# Track frame offsets:
#	150
#	11092
#	26740
#	42490
#	58165
#	70175
#	84047
#	96132
#	108757
#	125487
#
# Disc length: 1866 seconds
#
# Revision: 1
# Processed by: cddbd v1.5.2PL0 Copyright (c) Steve Scherf et al.
# Submitted via: EZCDAudioConverter 3.1.1.2
#
DISCID=7c07480a
DTITLE=Esu Star Revue
DYEAR=1900
DGENRE=Country
TTITLE0=Jim Seibers - Hell Raisin', Whiskey Chasin' (My Baby Away)
TTITLE1=Josephine Crooks - Now
TTITLE2=Darrell Perkins - Livin' A Dream
TTITLE3=Patsy Cain - Blue As I Can Be
TTITLE4=Richard Tinsley - If The World Turned Upside Down
TTITLE5=Tallie Nichols - Tonight's The Night
TTITLE6=Doc Goble - Even The Bitter Is Sweet
TTITLE7=Kat Andrews - Those Magazines
TTITLE8=Greta Cooper Young - Midnight Promises
TTITLE9=Kelly Pitts - To You
EXTD=
EXTT0=
EXTT1=
EXTT2=
EXTT3=
EXTT4=
EXTT5=
EXTT6=
EXTT7=
EXTT8=
EXTT9=
PLAYORDER=
